<svg width="512" height="512" viewBox="0 0 120 120" fill="none" xmlns="http://www.w3.org/2000/svg">
  <!-- Bouclier & Glycémie — InsulinCalc -->
  <path d="M60 10 C60 10 20 20 20 50 C20 80 40 105 60 112 C80 105 100 80 100 50 C100 20 60 10 60 10Z" fill="url(#grad3)"/>
  <path d="M60 36 C60 36 44 56 44 66 C44 74.8366 51.1634 82 60 82 C68.8366 82 76 74.8366 76 66 C76 56 60 36 60 36Z" fill="rgba(255,255,255,0.2)" stroke="rgba(255,255,255,0.4)" stroke-width="1.5"/>
  <polyline points="48,66 54,66 57,58 60,74 63,62 66,66 72,66" stroke="white" stroke-width="2" stroke-linecap="round" stroke-linejoin="round" fill="none"/>
  <defs>
    <linearGradient id="grad3" x1="20" y1="10" x2="100" y2="112" gradientUnits="userSpaceOnUse">
      <stop offset="0%" stop-color="#60a5fa"/>
      <stop offset="100%" stop-color="#3b82f6"/>
    </linearGradient>
  </defs>
</svg>
